<?xml version="1.0" encoding="utf-8"?>
<!-- Generator: Adobe Illustrator 16.0.0, SVG Export Plug-In . SVG Version: 6.00 Build 0)  -->
<!DOCTYPE svg PUBLIC "-//W3C//DTD SVG 1.1//EN" "http://www.w3.org/Graphics/SVG/1.1/DTD/svg11.dtd">
<svg version="1.1" id="Capa_1" xmlns="http://www.w3.org/2000/svg" xmlns:xlink="http://www.w3.org/1999/xlink" x="0px" y="0px"
	 width="175.435px" height="83.252px" viewBox="0 0 175.435 83.252" enable-background="new 0 0 175.435 83.252"
	 xml:space="preserve">
<g>
	<polygon fill="#FFFFFF" points="133.474,67.972 121.79,67.972 121.79,73.653 	"/>
	<path fill="#FFFFFF" d="M144.158,65.972c0,0.043-0.01,0.083-0.013,0.125c-0.005,0.073-0.01,0.146-0.021,0.219
		c-0.012,0.062-0.027,0.121-0.044,0.181c-0.018,0.064-0.035,0.129-0.06,0.191c-0.022,0.058-0.05,0.113-0.077,0.169
		c-0.03,0.061-0.061,0.121-0.097,0.179c-0.031,0.049-0.066,0.095-0.101,0.141c-0.044,0.058-0.088,0.113-0.138,0.166
		c-0.039,0.041-0.081,0.078-0.123,0.116c-0.054,0.048-0.107,0.095-0.166,0.137c-0.052,0.037-0.105,0.067-0.16,0.1
		c-0.043,0.024-0.081,0.055-0.126,0.077l-14.556,7.078h41.286l-18.01-27.901c-0.426-0.66-0.426-1.51,0-2.17l18.01-27.901h-25.605
		V65.972z"/>
	<polygon fill="#FFFFFF" points="41.961,67.972 53.645,73.653 53.645,67.972 	"/>
	<path fill="#FFFFFF" d="M32.401,67.771c-0.045-0.022-0.083-0.053-0.125-0.077c-0.055-0.032-0.109-0.062-0.16-0.1
		c-0.06-0.042-0.113-0.089-0.167-0.137c-0.042-0.038-0.085-0.075-0.124-0.116c-0.049-0.053-0.094-0.108-0.137-0.166
		c-0.035-0.046-0.069-0.092-0.101-0.141c-0.036-0.058-0.066-0.118-0.097-0.179c-0.027-0.056-0.055-0.111-0.077-0.169
		c-0.024-0.062-0.042-0.127-0.06-0.191c-0.016-0.06-0.033-0.119-0.043-0.181c-0.014-0.072-0.018-0.146-0.022-0.219
		c-0.003-0.042-0.013-0.082-0.013-0.125V16.877H5.671l18.01,27.901c0.426,0.66,0.426,1.51,0,2.17L5.671,74.85h41.286L32.401,67.771z
		"/>
	<path fill="#FFFFFF" d="M85.409,23.609c0-0.908-0.246-1.603-0.752-2.123c-0.498-0.511-1.175-0.759-2.07-0.759h-3.039v12.233h3.039
		c0.798,0,1.451-0.272,1.999-0.834c0.554-0.567,0.823-1.229,0.823-2.023V23.609z"/>
	<path fill="#FFFFFF" d="M140.158,63.972V6H35.276v57.972H140.158z M98.298,11.867h11.442l5.407,27.627l5.196-27.627h11.083v46.531
		h-8.715V39.166l-3.989,19.232h-6.994l-4.716-20.217v20.217h-8.715V11.867z M70.833,11.867h11.572c3.543,0,6.417,1.149,8.542,3.417
		c1.979,2.158,2.979,4.915,2.979,8.203v6.47c0,3.188-1.13,5.953-3.357,8.221c-2.231,2.271-4.973,3.424-8.146,3.424h-2.875v16.797
		h-8.715V11.867z M54.958,41.602h-2.875v16.797h-8.715V11.867H54.94c3.543,0,6.417,1.149,8.542,3.417
		c1.979,2.158,2.979,4.915,2.979,8.203v6.47c0,3.188-1.13,5.953-3.357,8.221C60.873,40.449,58.132,41.602,54.958,41.602z"/>
	<path fill="#FFFFFF" d="M55.122,32.961c0.798,0,1.451-0.272,1.999-0.834c0.554-0.567,0.823-1.229,0.823-2.023v-6.494
		c0-0.908-0.246-1.603-0.752-2.123c-0.498-0.511-1.175-0.759-2.07-0.759h-3.039v12.233H55.122z"/>
</g>
</svg>
