<?xml version="1.0" encoding="utf-8"?>
<!-- Generator: Adobe Illustrator 16.0.0, SVG Export Plug-In . SVG Version: 6.00 Build 0)  -->
<!DOCTYPE svg PUBLIC "-//W3C//DTD SVG 1.1//EN" "http://www.w3.org/Graphics/SVG/1.1/DTD/svg11.dtd">
<svg version="1.1" id="Capa_1" xmlns="http://www.w3.org/2000/svg" xmlns:xlink="http://www.w3.org/1999/xlink" x="0px" y="0px"
	 width="90.319px" height="36.9px" viewBox="0 0 90.319 36.9" enable-background="new 0 0 90.319 36.9" xml:space="preserve">
<g>
	<path fill="#FFFFFF" d="M26.728,7.766c-0.393-1.287-1.075-2.488-2.037-3.577c-0.906-0.98-1.941-1.74-3.076-2.258
		c-1.123-0.511-2.318-0.84-3.555-0.978c-1.229-0.136-2.482-0.098-3.721,0.112c-1.237,0.21-2.431,0.581-3.541,1.099
		C9.367,2.805,8.071,3.625,6.948,4.6C5.824,5.577,4.859,6.698,4.082,7.933c-0.777,1.233-1.384,2.584-1.803,4.014
		c-0.419,1.429-0.656,2.924-0.704,4.46c0,0.712,0.234,1.256,0.695,1.617c0.846,0.666,2.026,0.667,2.896,0.005
		c0.471-0.357,0.726-0.896,0.757-1.611c0.045-1.955,0.5-3.809,1.352-5.513c0.84-1.682,2.121-3.054,3.816-4.084
		c0.686-0.435,1.434-0.8,2.224-1.086c0.787-0.285,1.597-0.476,2.406-0.567c0.801-0.091,1.603-0.062,2.39,0.084
		c0.779,0.145,1.535,0.433,2.24,0.851c0.807,0.502,1.406,1.122,1.783,1.841c0.387,0.744,0.617,1.545,0.683,2.382
		c0.067,0.854-0.007,1.733-0.221,2.614c-0.218,0.89-0.546,1.731-0.973,2.494c-0.785,1.34-1.823,2.583-3.085,3.693
		c-1.261,1.11-2.648,1.977-4.104,2.569c-0.578,0.208-1.207,0.39-1.868,0.541c-0.575,0.132-1.089,0.101-1.549-0.1
		c-0.325-0.137-0.533-0.372-0.656-0.742c-0.141-0.42-0.216-0.89-0.225-1.398c0.586-1.408,1.179-2.815,1.776-4.223
		c0.614-1.443,1.21-2.887,1.77-4.292c0.144-0.287,0.189-0.595,0.137-0.919c-0.048-0.278-0.149-0.544-0.305-0.794
		c-0.15-0.239-0.34-0.45-0.562-0.628c-0.221-0.176-0.454-0.311-0.719-0.41c-0.614-0.191-1.176-0.108-1.639,0.238
		c-0.4,0.3-0.719,0.696-0.953,1.196c-0.6,1.417-1.194,2.834-1.783,4.251c-0.587,1.412-1.19,2.812-1.812,4.2L5.936,18.91
		c-0.895,2.068-1.786,4.204-2.65,6.347c-0.851,2.107-1.739,4.235-2.64,6.32c-0.136,0.305-0.178,0.624-0.127,0.945
		c0.045,0.291,0.146,0.569,0.297,0.824C0.969,33.609,1.166,33.829,1.399,34c0.231,0.169,0.478,0.288,0.728,0.351
		c0.188,0.05,0.373,0.075,0.551,0.075c0.392,0,0.75-0.12,1.064-0.356c0.4-0.3,0.718-0.696,0.951-1.192
		c0.601-1.392,1.189-2.767,1.766-4.124l1.468-3.46c0.777,0.61,1.66,0.99,2.625,1.131c0.94,0.138,1.89,0.147,2.869,0.017
		c1.094-0.173,2.172-0.495,3.204-0.955c1.02-0.455,2.012-1.022,2.947-1.687c0.929-0.66,1.81-1.405,2.62-2.214
		c0.812-0.812,1.543-1.668,2.171-2.539c0.79-1.061,1.442-2.238,1.938-3.5c0.496-1.267,0.792-2.571,0.879-3.875
		C27.267,10.358,27.115,9.044,26.728,7.766z"/>
	<path fill="#FFFFFF" d="M50.308,7.766c-0.393-1.288-1.076-2.489-2.038-3.577c-0.903-0.98-1.938-1.74-3.076-2.258
		c-1.123-0.511-2.318-0.84-3.554-0.978c-1.229-0.136-2.482-0.098-3.721,0.112c-1.237,0.21-2.431,0.581-3.541,1.099
		c-1.431,0.642-2.727,1.461-3.85,2.437c-1.124,0.977-2.089,2.098-2.866,3.333c-0.777,1.233-1.384,2.584-1.803,4.014
		c-0.419,1.429-0.656,2.924-0.704,4.46c0,0.712,0.234,1.256,0.695,1.617c0.847,0.666,2.027,0.667,2.896,0.005
		c0.472-0.357,0.726-0.896,0.756-1.61c0.047-1.957,0.502-3.812,1.352-5.513c0.841-1.682,2.122-3.055,3.816-4.084
		c0.688-0.436,1.438-0.801,2.225-1.087c0.787-0.285,1.597-0.476,2.405-0.567c0.801-0.09,1.603-0.062,2.391,0.084
		c0.777,0.145,1.534,0.433,2.24,0.851c0.807,0.502,1.406,1.122,1.782,1.841c0.387,0.74,0.616,1.542,0.684,2.382
		c0.067,0.854-0.007,1.734-0.223,2.614c-0.215,0.885-0.543,1.728-0.971,2.494c-0.785,1.34-1.823,2.583-3.085,3.694
		c-1.259,1.109-2.646,1.976-4.104,2.568c-0.581,0.209-1.209,0.391-1.868,0.541c-0.575,0.132-1.088,0.102-1.549-0.1
		c-0.325-0.137-0.533-0.372-0.655-0.741c-0.142-0.423-0.217-0.894-0.226-1.399c0.586-1.408,1.179-2.815,1.776-4.223
		c0.614-1.443,1.209-2.887,1.77-4.292c0.144-0.288,0.189-0.597,0.136-0.917c-0.047-0.278-0.147-0.545-0.304-0.796
		c-0.15-0.239-0.34-0.45-0.561-0.627c-0.22-0.176-0.453-0.311-0.72-0.411c-0.614-0.191-1.176-0.109-1.639,0.239
		c-0.401,0.301-0.719,0.697-0.952,1.195c-0.602,1.418-1.195,2.834-1.784,4.251c-0.586,1.412-1.19,2.812-1.812,4.2l-0.111,0.294
		c-0.907,2.101-1.799,4.237-2.65,6.347c-0.851,2.107-1.739,4.235-2.64,6.32c-0.136,0.305-0.178,0.624-0.127,0.945
		c0.045,0.291,0.146,0.569,0.297,0.824c0.153,0.263,0.351,0.483,0.584,0.655c0.231,0.169,0.478,0.288,0.728,0.351
		c0.188,0.05,0.373,0.075,0.551,0.075c0.392,0,0.75-0.12,1.064-0.356c0.4-0.3,0.718-0.696,0.951-1.192
		c0.601-1.392,1.188-2.767,1.765-4.124l1.469-3.46c0.776,0.609,1.66,0.99,2.625,1.131c0.944,0.139,1.89,0.148,2.869,0.017
		c1.094-0.173,2.172-0.495,3.204-0.955c1.02-0.455,2.012-1.022,2.947-1.687c0.932-0.663,1.813-1.407,2.62-2.214
		c0.804-0.804,1.535-1.66,2.172-2.54c0.79-1.062,1.441-2.239,1.937-3.5c0.495-1.264,0.791-2.567,0.879-3.875
		C50.847,10.358,50.695,9.044,50.308,7.766z"/>
	<path fill="#FFFFFF" d="M89.592,4.9c-0.222-0.948-0.637-1.797-1.235-2.526c-0.624-0.759-1.519-1.265-2.659-1.503
		c-1.136-0.238-2.237-0.11-3.27,0.379c-0.969,0.46-1.85,1.008-2.609,1.621c-0.638,0.49-1.247,1.019-1.81,1.569
		c-0.248,0.243-0.492,0.492-0.731,0.748c-0.015-0.192-0.035-0.382-0.062-0.569c-0.093-0.646-0.287-1.242-0.579-1.772
		c-0.302-0.549-0.725-1.007-1.259-1.363c-0.531-0.354-1.215-0.586-2.028-0.692c-0.59-0.08-1.165-0.052-1.715,0.082
		c-0.528,0.129-1.042,0.318-1.527,0.561c-0.477,0.238-0.948,0.525-1.401,0.852c-0.44,0.318-0.856,0.636-1.257,0.962
		c-0.538,0.461-1.056,0.955-1.544,1.472c0.124-0.306,0.24-0.604,0.348-0.891c0.327-0.745,0.321-1.443-0.018-2.076
		C65.892,1.115,65.282,0.731,64.4,0.61c-1.317-0.123-2.7-0.141-4.126-0.055c-1.436,0.086-2.848,0.329-4.195,0.721
		c-1.359,0.396-2.65,0.978-3.837,1.732c-1.206,0.767-2.237,1.791-3.07,3.053c-0.608,0.964-1.013,1.993-1.203,3.059
		c-0.189,1.06-0.196,2.123-0.02,3.16c0.177,1.036,0.535,2.046,1.064,3.001c0.527,0.956,1.216,1.823,2.039,2.571
		c0.494,0.464,1.046,0.662,1.636,0.581c0.545-0.076,1.006-0.308,1.37-0.688c0.364-0.379,0.58-0.839,0.642-1.37
		c0.046-0.405-0.039-1.012-0.7-1.596c-0.514-0.469-0.938-0.982-1.257-1.523c-0.316-0.534-0.524-1.094-0.621-1.666
		c-0.097-0.567-0.08-1.15,0.049-1.733c0.129-0.577,0.403-1.156,0.822-1.73c0.464-0.664,1.036-1.219,1.698-1.649
		c0.679-0.441,1.425-0.791,2.218-1.04c0.801-0.252,1.645-0.421,2.507-0.501c0.619-0.058,1.239-0.09,1.846-0.095
		c-1.558,3.658-3.104,7.312-4.64,10.959c-1.632,3.875-3.288,7.755-4.969,11.646c-0.265,0.628-0.519,1.25-0.761,1.866
		c-0.238,0.608-0.488,1.223-0.742,1.824c-0.236,0.501-0.311,1.014-0.22,1.524c0.099,0.558,0.446,1.014,1.036,1.354
		c0.439,0.25,0.962,0.323,1.586,0.201c0.645-0.125,1.122-0.483,1.39-1.051c1.355-3.186,2.852-6.347,4.447-9.396
		c1.596-3.049,3.357-6.076,5.234-8.998c0.802-1.25,1.661-2.501,2.555-3.718c0.885-1.202,1.846-2.348,2.85-3.399
		c0.401-0.402,0.792-0.774,1.169-1.117c0.369-0.333,0.78-0.668,1.161-0.956c0.34-0.181,0.64-0.323,0.902-0.425
		c0.178-0.07,0.337-0.112,0.474-0.124c0.032,0.009,0.064,0.017,0.098,0.022l0.022,0.154h0.095l0.014,0.072l0.217,0.123l-0.131,0.026
		c0.007,0.034,0.021,0.13,0.046,0.29c0.03,0.205,0.048,0.349,0.049,0.401c-0.045,0.772-0.214,1.628-0.5,2.543
		c-0.298,0.954-0.602,1.858-0.91,2.713c-0.263,0.717-0.532,1.428-0.807,2.133c-0.271,0.695-0.574,1.378-0.884,2
		c-0.841,1.442-1.641,2.93-2.376,4.423c-0.738,1.502-1.427,3.04-2.022,4.517L64.98,25.65c-0.302,0.541-0.615,1.156-0.934,1.83
		c-0.317,0.672-0.608,1.371-0.864,2.078c-0.269,0.74-0.417,1.439-0.444,2.076c-0.027,0.697,0.123,1.29,0.448,1.761
		c0.354,0.515,0.978,0.806,1.822,0.861c0.504,0.067,0.97-0.079,1.367-0.425c0.356-0.312,0.601-0.673,0.72-1.059
		c0.406-1.173,0.813-2.323,1.221-3.45c0.405-1.12,0.839-2.226,1.252-3.219c0.2-0.325,0.376-0.663,0.521-1.004
		c0.123-0.292,0.274-0.584,0.47-0.903c0.554-1.083,1.095-2.166,1.624-3.248s1.047-2.165,1.535-3.216
		c0.809-1.451,1.65-2.832,2.503-4.11c0.756-1.158,1.565-2.297,2.406-3.388c0.831-1.077,1.751-2.085,2.761-3.026
		c0.301-0.324,0.607-0.625,0.92-0.902c0.299-0.265,0.642-0.512,1.06-0.761c0.224-0.162,0.471-0.291,0.734-0.382
		c0.262-0.091,0.429-0.123,0.532-0.132c0.062,0.016,0.126,0.025,0.188,0.03c0.042,0.012,0.079,0.021,0.113,0.028
		c0.046,0.018,0.069,0.029,0.072,0.029c0,0,0,0,0,0c0.044,0.046,0.101,0.124,0.195,0.262c0.037,0.047,0.117,0.169,0.233,0.454
		c0.104,0.252,0.125,0.408,0.128,0.553c0.088,0.75,0.032,1.497-0.165,2.223c-0.208,0.764-0.479,1.528-0.814,2.298
		c-0.757,2.054-1.684,4.052-2.756,5.938c-1.082,1.901-2.146,3.883-3.163,5.892c-0.435,0.869-0.882,1.811-1.341,2.825
		c-0.463,1.024-0.847,2.09-1.142,3.171c-0.298,1.093-0.456,2.214-0.468,3.33c-0.014,1.157,0.254,2.266,0.796,3.298
		c0.398,0.759,0.979,0.974,1.396,1.021c0.101,0.011,0.199,0.017,0.297,0.017c0.425,0,0.826-0.105,1.191-0.312
		c0.458-0.259,0.797-0.65,1.009-1.163c0.224-0.545,0.183-1.133-0.114-1.726c-0.082-0.184-0.149-0.399-0.202-0.642
		c-0.048-0.217-0.051-0.479-0.006-0.846c0-0.328,0.039-0.674,0.115-1.031c0.081-0.384,0.18-0.772,0.293-1.158
		c0.329-1.036,0.722-2.045,1.166-3.002c0.453-0.979,0.931-1.971,1.433-2.974c0.518-1.036,1.077-2.089,1.662-3.128
		c0.59-1.047,1.169-2.107,1.735-3.18c0.565-1.071,1.098-2.179,1.581-3.292c0.483-1.11,0.903-2.269,1.249-3.452
		c0.222-0.813,0.378-1.721,0.466-2.698C89.871,6.795,89.806,5.822,89.592,4.9z"/>
</g>
</svg>
