<?xml version="1.0" encoding="utf-8"?>
<!-- Generator: Adobe Illustrator 16.0.0, SVG Export Plug-In . SVG Version: 6.00 Build 0)  -->
<!DOCTYPE svg PUBLIC "-//W3C//DTD SVG 1.1//EN" "http://www.w3.org/Graphics/SVG/1.1/DTD/svg11.dtd">
<svg version="1.1" id="Capa_1" xmlns="http://www.w3.org/2000/svg" xmlns:xlink="http://www.w3.org/1999/xlink" x="0px" y="0px"
	 width="358.721px" height="210.354px" viewBox="0 0 358.721 210.354" enable-background="new 0 0 358.721 210.354"
	 xml:space="preserve">
<g>
	<path fill="none" d="M281.94,189.147c0.061,0.371,0.14,0.656,0.24,0.855c0.1,0.2,0.21,0.38,0.33,0.54
		c0.199,0.26,0.48,0.485,0.84,0.675c0.36,0.19,0.78,0.285,1.26,0.285c0.48,0,0.9-0.095,1.261-0.285
		c0.359-0.189,0.64-0.415,0.84-0.675c0.12-0.16,0.229-0.34,0.33-0.54c0.1-0.199,0.18-0.484,0.239-0.855
		c0.061-0.369,0.11-0.854,0.15-1.454c0.04-0.601,0.061-1.391,0.061-2.37c0-0.98-0.021-1.775-0.061-2.386
		c-0.04-0.609-0.09-1.1-0.15-1.47c-0.06-0.37-0.14-0.654-0.239-0.854c-0.101-0.2-0.21-0.38-0.33-0.54c-0.2-0.26-0.48-0.48-0.84-0.66
		c-0.36-0.18-0.78-0.271-1.261-0.271c-0.479,0-0.899,0.091-1.26,0.271c-0.359,0.18-0.641,0.4-0.84,0.66
		c-0.12,0.16-0.23,0.34-0.33,0.54c-0.101,0.2-0.18,0.484-0.24,0.854c-0.06,0.37-0.109,0.86-0.149,1.47
		c-0.041,0.61-0.061,1.405-0.061,2.386c0,0.979,0.02,1.77,0.061,2.37C281.831,188.293,281.881,188.778,281.94,189.147z"/>
	<polygon fill="none" points="273.925,41.12 279.247,68.128 285.043,69.623 285.043,21.565 279.5,20.135 279.5,46.808 
		274.421,18.825 268.382,17.267 268.382,65.325 273.925,66.755 	"/>
	<path fill="none" d="M112.445,131.898l-10.308,10.307l2.052,2.318l11.453-11.45c0.037-0.037,0.085-0.053,0.125-0.083l-2.782-0.837
		C112.793,132.096,112.614,132.005,112.445,131.898z"/>
	<path fill="none" d="M117.516,133.516c0.134,0.397,0.054,0.852-0.264,1.169l-11.551,11.547l2.055,2.321l13.816-13.817
		L117.516,133.516z"/>
	<polygon fill="none" points="292.057,71.884 297.511,73.69 297.511,33.755 302.224,35.315 302.224,27.172 287.328,22.239 
		287.328,30.383 292.057,31.949 	"/>
	<polygon fill="none" points="331.892,80.424 324.642,76.802 324.642,36.814 319.445,34.219 319.445,82.362 331.892,88.58 	"/>
	<path fill="none" d="M226.592,179.353h-2.97v4.32h2.97c0.72,0,1.28-0.22,1.68-0.66c0.4-0.439,0.601-0.939,0.601-1.5
		c0-0.56-0.2-1.06-0.601-1.5C227.872,179.573,227.312,179.353,226.592,179.353z"/>
	<path fill="none" d="M305.9,76.746l1.062-10.379l3.648,1.456l1.029,11.213l5.611,2.241l-4.913-49.772l-0.03-0.303l-6.898-2.754
		L300.4,74.55L305.9,76.746z M308.796,46.871l1.067,12.668l-2.135-0.852L308.796,46.871z"/>
	<polygon fill="none" points="108.337,128.413 98.572,138.178 100.626,140.498 110.688,130.437 	"/>
	<polygon fill="none" points="124.603,139.297 123.092,136.435 109.268,150.26 111.32,152.58 	"/>
	<path fill="none" d="M126.193,142.31l-0.479-0.906l-6.99,6.99l8.104-5.343C126.573,142.856,126.353,142.611,126.193,142.31z"/>
	<polygon fill="none" points="256.358,113.381 235.083,134.142 232.727,138.475 232.622,140.769 258.065,115.942 	"/>
	<polygon fill="none" points="96.096,117.88 89.523,124.452 90.197,128.152 98.446,119.902 	"/>
	<path fill="none" d="M94.362,116.343l-1.94-2.379l-3.957,3.957c-0.034,0.035-0.08,0.049-0.117,0.078l0.68,3.73l5.36-5.36
		C94.38,116.359,94.37,116.353,94.362,116.343z"/>
	<polygon fill="none" points="100.176,121.392 91.443,130.125 93.495,132.442 102.525,123.413 	"/>
	<polygon fill="none" points="104.256,124.901 95.007,134.149 97.061,136.471 106.607,126.925 	"/>
	<path fill="none" d="M87.175,111.562l0.683,3.748l3.117-3.118l-1.964-2.408l-1.667,1.666
		C87.294,111.499,87.23,111.522,87.175,111.562z"/>
	<polygon fill="none" points="86.688,108.887 87.564,108.01 86.23,106.376 	"/>
	<path fill="none" d="M148.308,38.039c-0.646-1.68-1.563-3.385-2.723-5.063c-0.364-0.54-1.082-1.44-2.193-2.754
		c-0.893-1.046-1.572-1.97-2.021-2.744c-1.175-2.047-1.771-4.125-1.771-6.175c0-1.308,0.173-2.425,0.512-3.321
		c0.383-1.002,0.883-1.515,1.528-1.568c0.604-0.043,1.044,0.195,1.383,0.79c0.558,0.943,0.9,2.349,1.02,4.175l0.043,0.662
		l5.468-1.957l-0.023-0.374c-0.127-2.074-0.486-3.92-1.067-5.485c-0.594-1.598-1.391-2.841-2.368-3.694
		c-1.288-1.121-2.842-1.623-4.654-1.47c-1.866,0.153-3.446,1.002-4.701,2.527c-1.958,2.436-2.95,5.89-2.95,10.267
		c0,2.417,0.358,4.664,1.067,6.685c0.648,1.79,1.774,3.797,3.35,5.968c1.848,2.495,3.236,4.367,4.146,5.585
		c1.11,1.738,1.674,3.568,1.674,5.438c0,1.269-0.147,2.267-0.44,2.972c-0.536,1.325-1.227,2.053-2.061,2.163
		c-0.524,0.082-0.975-0.218-1.428-0.937c-0.709-1.082-1.168-2.958-1.364-5.574l-0.042-0.557l-5.41,1.011l0.016,0.43
		c0.093,2.554,0.443,4.821,1.043,6.738c0.609,1.948,1.448,3.496,2.493,4.6c1.168,1.24,2.631,1.869,4.349,1.869
		c0.201,0,0.405-0.009,0.614-0.026c1.056-0.087,2-0.361,2.799-0.813c1.474-0.798,2.627-2.083,3.426-3.813
		c1.185-2.475,1.768-5.424,1.732-8.768c-0.023-1.373-0.264-2.913-0.715-4.577C148.851,39.555,148.604,38.812,148.308,38.039z"/>
	<path fill="none" d="M107.03,50.761c0,1.022-0.234,1.948-0.696,2.749c-0.437,0.755-0.937,1.174-1.529,1.28
		c-0.521,0.1-0.976-0.11-1.383-0.657c-0.451-0.604-0.681-1.419-0.681-2.421V14.736l-5.518,0.993v36.872
		c0,3.189,0.748,5.819,2.223,7.816c1.283,1.74,2.837,2.623,4.619,2.623c0.336,0,0.684-0.031,1.035-0.095
		c2.164-0.39,4.024-1.867,5.529-4.393c1.473-2.474,2.22-5.361,2.22-8.583V12.918l-5.819,1.047V50.761z"/>
	<path fill="none" d="M87,17.486c-2.123,0.506-3.951,2.104-5.432,4.747c-1.452,2.592-2.188,5.521-2.188,8.704v25.756
		c0,3.208,0.744,5.812,2.21,7.74c1.209,1.591,2.663,2.398,4.32,2.398c0.426,0,0.871-0.055,1.322-0.162
		c2.112-0.503,3.934-2.09,5.414-4.716c1.453-2.576,2.189-5.505,2.189-8.705v-7.182l-5.73,1.365v6.865
		c0,1.043-0.238,1.994-0.707,2.827c-0.441,0.782-0.962,1.249-1.548,1.389c-0.523,0.121-0.938-0.052-1.328-0.562
		c-0.438-0.577-0.661-1.386-0.661-2.403V29.741c0-1.045,0.236-2,0.701-2.841c0.436-0.788,0.947-1.257,1.521-1.394
		c0.53-0.129,0.96,0.053,1.353,0.57c0.444,0.584,0.67,1.396,0.67,2.414v6.124l5.73-1.365v-5.757c0-3.188-0.74-5.793-2.199-7.74
		C91.12,17.732,89.209,16.964,87,17.486z"/>
	<path fill="none" d="M111.213,179.353h-2.97v4.32h2.97c0.72,0,1.28-0.22,1.68-0.66c0.4-0.439,0.601-0.939,0.601-1.5
		c0-0.56-0.2-1.06-0.601-1.5C112.493,179.573,111.933,179.353,111.213,179.353z"/>
	<polygon fill="none" points="71.24,49.159 66.19,23.837 60.272,25.67 60.272,73.742 65.755,72.043 65.755,46.189 71.05,70.403 
		76.723,68.646 76.723,20.574 71.24,22.273 	"/>
	<path fill="none" d="M75.843,183.013c0.4-0.439,0.601-0.939,0.601-1.5c0-0.56-0.2-1.06-0.601-1.5c-0.399-0.439-0.96-0.66-1.68-0.66
		h-2.97v4.32h2.97C74.883,183.673,75.443,183.453,75.843,183.013z"/>
	<path fill="none" d="M236.441,96.247c-0.118-0.037-0.229-0.089-0.338-0.145l-2.457,2.398l0.708,3.537l4.996-4.875L236.441,96.247z"
		/>
	<path fill="none" d="M185.545,45.379l3.995,0.068l1.108,10.821l5.925,0.102l-5.266-47.679l-0.049-0.438l-7.359-0.127l-5.384,47.933
		l5.887,0.102L185.545,45.379z M187.552,24.816l1.191,12.707l-2.383-0.04L187.552,24.816z"/>
	<path fill="none" d="M131.261,29.133v-6.832c0-3.463-0.565-6.152-1.679-7.993c-1.309-2.201-3.4-3.145-6.196-2.793l-7.766,0.982
		V60.53l5.654-0.716V42.077l2.18-0.275l2.835,17.379l6.018-0.761l-3.504-20.433C130.434,35.456,131.261,32.479,131.261,29.133z
		 M125.725,29.861c0,1.021-0.234,1.935-0.697,2.717c-0.434,0.73-0.929,1.121-1.515,1.195l-2.238,0.283V20.034l2.363-0.299
		c0.112-0.015,0.22-0.021,0.323-0.021c0.437,0,1.764,0,1.764,3.29V29.861z"/>
	<path fill="none" d="M160.338,7.922l-0.247,0.005c-2.186,0.087-4.075,1.34-5.616,3.724c-1.501,2.32-2.263,5.126-2.263,8.337V45.64
		c0,3.198,0.754,5.943,2.242,8.159c1.477,2.201,3.304,3.318,5.433,3.318l0.243-0.005c2.22-0.089,4.127-1.342,5.668-3.726
		c1.501-2.32,2.263-5.126,2.263-8.338V19.396c0-3.198-0.761-5.943-2.26-8.16C164.312,9.037,162.475,7.922,160.338,7.922z
		 M162.168,45.195c0,1.014-0.234,1.896-0.697,2.621c-0.427,0.67-0.918,1.007-1.561,1.032c-0.533,0-0.994-0.293-1.407-0.895
		c-0.468-0.682-0.705-1.538-0.705-2.545V19.673c0-1.028,0.239-1.913,0.711-2.629c0.438-0.665,0.93-1,1.503-1.022l0.063-0.492h0.001
		v0.49c0.541,0,1,0.288,1.402,0.88c0.458,0.673,0.689,1.534,0.689,2.56V45.195z"/>
	<path fill="none" d="M50.106,29.001c-1.992,0.787-3.715,2.62-5.12,5.447c-1.382,2.784-2.082,5.813-2.082,9.005v25.652
		c0,3.213,0.712,5.731,2.116,7.485c1.017,1.27,2.216,1.914,3.564,1.914c0.601,0,1.236-0.131,1.889-0.389
		c2.025-0.799,3.764-2.639,5.168-5.466c1.382-2.783,2.083-5.812,2.083-9.005V37.993c0-3.214-0.718-5.73-2.135-7.481
		C54.108,28.681,52.23,28.162,50.106,29.001z M52.171,65.396c0,1.033-0.226,2.017-0.672,2.924c-0.422,0.861-0.928,1.413-1.503,1.64
		c-0.156,0.062-0.303,0.093-0.435,0.093c-0.275,0-0.525-0.142-0.766-0.433c-0.414-0.501-0.624-1.258-0.624-2.249V41.635
		c0-1.049,0.23-2.037,0.685-2.938c0.433-0.858,0.94-1.407,1.507-1.632c0.162-0.063,0.313-0.096,0.449-0.096
		c0.174,0,0.44,0.043,0.748,0.42c0.405,0.498,0.61,1.263,0.61,2.271V65.396z"/>
	<path fill="none" d="M234.231,59.424c1.127,0,2.265-0.456,3.383-1.356c1.115-0.903,1.987-2.185,2.593-3.81
		c0.751-2.036,1.132-4.599,1.132-7.617c0-1.214-0.058-2.341-0.173-3.354c-0.23-1.952-0.6-3.598-1.098-4.894
		c-0.628-1.617-1.387-2.846-2.26-3.663c0.452-0.365,0.861-0.835,1.221-1.404c1.139-1.846,1.717-4.417,1.717-7.641
		c0-1.951-0.151-3.686-0.45-5.154c-0.557-2.755-1.508-4.897-2.826-6.368c-1.557-1.745-3.336-2.752-5.291-2.991l-7.521-0.924V58.28
		l9.059,1.112C233.888,59.414,234.06,59.424,234.231,59.424z M230.671,19.187l1.386,0.17c0.769,0.095,1.384,0.561,1.881,1.423
		c0.573,0.991,0.864,2.438,0.864,4.299c0,1.123-0.087,2.071-0.257,2.815c-0.595,2.497-1.721,2.502-2.095,2.502c0,0-0.001,0-0.002,0
		c-0.087,0-0.177-0.006-0.27-0.017l-1.508-0.186V19.187z M232.179,51.184l-1.508-0.185V37.981l1.387,0.17
		c0.982,0.121,1.709,0.677,2.224,1.704c0.626,1.207,0.943,3.105,0.943,5.642c0,1.052-0.103,1.976-0.306,2.751
		c-0.748,2.944-2.024,2.953-2.449,2.953C232.355,51.21,232.278,51.196,232.179,51.184z"/>
	<path fill="none" d="M204.504,163.481c0.054,0.294,0.132,0.54,0.233,0.738c0.103,0.197,0.231,0.381,0.388,0.549
		c0.228,0.24,0.507,0.432,0.837,0.576c0.33,0.144,0.687,0.216,1.071,0.216c0.384,0,0.74-0.072,1.07-0.216
		c0.33-0.145,0.609-0.336,0.837-0.576c0.156-0.168,0.285-0.352,0.388-0.549c0.102-0.198,0.18-0.444,0.233-0.738
		c0.055-0.294,0.09-0.654,0.108-1.08c0.018-0.426,0.026-0.963,0.026-1.611c0-0.647-0.009-1.185-0.026-1.61
		c-0.019-0.426-0.054-0.786-0.108-1.08c-0.054-0.294-0.132-0.54-0.233-0.738c-0.103-0.198-0.231-0.381-0.388-0.549
		c-0.228-0.24-0.507-0.433-0.837-0.576c-0.33-0.145-0.687-0.216-1.07-0.216c-0.385,0-0.741,0.071-1.071,0.216
		c-0.33,0.144-0.609,0.336-0.837,0.576c-0.156,0.168-0.285,0.351-0.388,0.549c-0.102,0.198-0.18,0.444-0.233,0.738
		s-0.09,0.654-0.108,1.08c-0.018,0.426-0.026,0.963-0.026,1.61c0,0.648,0.009,1.186,0.026,1.611
		C204.414,162.827,204.45,163.188,204.504,163.481z"/>
	<polygon fill="none" points="249.644,13.68 244.012,12.773 244.012,60.811 249.644,61.717 	"/>
	<path fill="none" d="M209.281,181.468c-0.06-0.37-0.14-0.654-0.239-0.854c-0.101-0.2-0.21-0.38-0.33-0.54
		c-0.2-0.26-0.48-0.48-0.84-0.66c-0.36-0.18-0.78-0.271-1.261-0.271c-0.479,0-0.899,0.091-1.26,0.271
		c-0.359,0.18-0.641,0.4-0.84,0.66c-0.12,0.16-0.23,0.34-0.33,0.54c-0.101,0.2-0.18,0.484-0.24,0.854
		c-0.06,0.37-0.109,0.86-0.149,1.47c-0.041,0.61-0.061,1.405-0.061,2.386c0,0.979,0.02,1.77,0.061,2.37
		c0.04,0.6,0.09,1.085,0.149,1.454c0.061,0.371,0.14,0.656,0.24,0.855c0.1,0.2,0.21,0.38,0.33,0.54
		c0.199,0.26,0.48,0.485,0.84,0.675c0.36,0.19,0.78,0.285,1.26,0.285c0.48,0,0.9-0.095,1.261-0.285
		c0.359-0.189,0.64-0.415,0.84-0.675c0.12-0.16,0.229-0.34,0.33-0.54c0.1-0.199,0.18-0.484,0.239-0.855
		c0.061-0.369,0.11-0.854,0.15-1.454c0.04-0.601,0.061-1.391,0.061-2.37c0-0.98-0.021-1.775-0.061-2.386
		C209.392,182.328,209.342,181.838,209.281,181.468z"/>
	<polygon fill="none" points="266.562,56.842 258.062,55.149 258.062,43.304 264.271,44.54 264.271,36.431 258.062,35.194 
		258.062,23.323 266.562,25.017 266.562,16.907 252.462,14.099 252.462,62.143 266.562,64.951 	"/>
	<path fill="none" d="M167.325,158.153c0-0.639-0.201-1.136-0.603-1.491c-0.402-0.355-0.927-0.534-1.575-0.534h-2.88v4.032h2.88
		c0.648,0,1.173-0.175,1.575-0.524C167.124,159.286,167.325,158.792,167.325,158.153z"/>
	<path fill="none" d="M159.182,181.468c-0.06-0.37-0.14-0.654-0.239-0.854c-0.101-0.2-0.21-0.38-0.33-0.54
		c-0.2-0.26-0.48-0.48-0.84-0.66c-0.36-0.18-0.78-0.271-1.261-0.271c-0.479,0-0.899,0.091-1.26,0.271
		c-0.359,0.18-0.641,0.4-0.84,0.66c-0.12,0.16-0.23,0.34-0.33,0.54c-0.101,0.2-0.18,0.484-0.24,0.854
		c-0.06,0.37-0.109,0.86-0.149,1.47c-0.041,0.61-0.061,1.405-0.061,2.386c0,0.979,0.02,1.77,0.061,2.37
		c0.04,0.6,0.09,1.085,0.149,1.454c0.061,0.371,0.14,0.656,0.24,0.855c0.1,0.2,0.21,0.38,0.33,0.54
		c0.199,0.26,0.48,0.485,0.84,0.675c0.36,0.19,0.78,0.285,1.26,0.285c0.48,0,0.9-0.095,1.261-0.285
		c0.359-0.189,0.64-0.415,0.84-0.675c0.12-0.16,0.229-0.34,0.33-0.54c0.1-0.199,0.18-0.484,0.239-0.855
		c0.061-0.369,0.11-0.854,0.15-1.454c0.04-0.601,0.061-1.391,0.061-2.37c0-0.98-0.021-1.775-0.061-2.386
		C159.292,182.328,159.242,181.838,159.182,181.468z"/>
	<path fill="none" d="M33.383,36.371c-1.933,0.952-3.596,2.921-4.945,5.851c-1.33,2.89-2.005,5.961-2.005,9.129v25.756
		c0,3.217,0.693,5.674,2.061,7.303c0.908,1.083,1.97,1.633,3.153,1.633c0.688,0,1.421-0.189,2.179-0.563
		c1.922-0.949,3.581-2.906,4.93-5.817c1.329-2.871,2.004-5.942,2.004-9.13v-7.354l-5.36,2.646v6.782
		c0,1.056-0.224,2.074-0.665,3.028c-0.423,0.914-0.924,1.519-1.489,1.797c-0.174,0.086-0.334,0.13-0.474,0.13
		s-0.356-0.036-0.62-0.351c-0.39-0.465-0.587-1.211-0.587-2.219V49.184c0-1.056,0.222-2.078,0.659-3.04
		c0.417-0.918,0.91-1.522,1.464-1.796c0.18-0.088,0.343-0.133,0.486-0.133s0.364,0.037,0.632,0.355
		c0.394,0.471,0.594,1.22,0.594,2.228v6.297l5.36-2.646v-5.674c0-3.199-0.689-5.656-2.05-7.304
		C37.278,35.737,35.444,35.354,33.383,36.371z"/>
	<polygon fill="none" points="204.81,33.388 208.415,57.036 213.037,57.348 216.151,34.813 216.151,57.558 221.832,57.94 
		221.832,9.912 214.443,9.415 210.688,39.406 206.779,8.898 199.129,8.383 199.129,56.411 204.81,56.793 	"/>
	<path fill="none" d="M155.4,159.846c0.414-0.366,0.621-0.892,0.621-1.575c0-0.685-0.207-1.212-0.621-1.584
		s-0.963-0.559-1.647-0.559h-2.808v4.267h2.808C154.438,160.395,154.986,160.212,155.4,159.846z"/>
	<path fill="none" d="M201.243,113.137c0.228,0.016,0.444,0.1,0.624,0.24l29.378,23.057l1.853-3.408l-9.835-13.508
		c-0.263-0.361-0.29-0.844-0.068-1.232l8.941-15.727l-4.271-21.339l-0.446-0.857l-16.886,13.736l-9.03,14.587
		c-0.21,0.338-0.504,0.615-0.854,0.805l-5.903,3.192L201.243,113.137z"/>
	<polygon fill="none" points="161.224,126.259 159.703,123.408 155.128,127.983 156.551,130.933 	"/>
	<path fill="none" d="M189.728,110.219l4.079-2.206c-1.234-10.428-10.127-18.448-20.75-18.448c-11.536,0-20.922,9.386-20.922,20.922
		c0,0.899,0.078,1.794,0.192,2.682l6.785,1.271c0.68,0.128,1.265,0.557,1.59,1.167l7.25,13.59h4c0.587,0,1.151,0.228,1.576,0.634
		l1.273,1.221l14.146-20.138C189.15,110.624,189.417,110.387,189.728,110.219z"/>
	<polygon fill="none" points="227.521,138.513 230.184,138.698 230.242,138.542 228.701,137.333 	"/>
	<polygon fill="none" points="203.324,136.718 214.137,125.901 211.69,123.981 202.064,133.604 203.316,136.729 	"/>
	<path fill="none" d="M173.762,136.498c-0.001,0-0.002,0-0.003-0.001c-0.306-0.215-0.534-0.495-0.696-0.805l-1.464-1.403
		l-7.784,7.783l1.391,0.942l2.042-0.002L173.762,136.498z"/>
	<polygon fill="none" points="163.865,131.21 162.344,128.358 157.599,133.104 159.021,136.054 	"/>
	<polygon fill="none" points="179.351,141.721 178.068,143.003 180.687,143.001 	"/>
	<path fill="none" d="M168.918,133.751h-2.332c-0.555,0-1.068-0.217-1.476-0.568l-5.041,5.042l0.938,1.945l0.889,0.603
		L168.918,133.751z"/>
	<polygon fill="none" points="170.469,143.01 174.847,143.006 177.707,140.146 175.475,138.004 	"/>
	<polygon fill="none" points="194.713,114.963 191.811,114.76 191.39,115.358 193.046,116.629 	"/>
	<polygon fill="none" points="308.946,154.314 307.88,151.007 305.352,153.536 307.643,155.619 	"/>
	<polygon fill="none" points="275.878,138.781 279.443,137.789 278.612,136.113 	"/>
	<polygon fill="none" points="232.123,89.398 231.638,88.466 231.873,89.643 	"/>
	<polygon fill="none" points="297.701,135.194 295.07,133.45 290.259,138.261 289.925,139.516 291.734,141.16 	"/>
	<polygon fill="none" points="307.095,148.574 306.028,145.269 301.375,149.923 303.665,152.005 	"/>
	<polygon fill="none" points="293.135,132.166 292.069,131.46 291.427,133.874 	"/>
	<polygon fill="none" points="295.712,144.776 302.266,138.222 299.637,136.479 293.421,142.693 	"/>
	<polygon fill="none" points="305.244,142.835 304.178,139.528 297.398,146.308 299.688,148.39 	"/>
	<polygon fill="none" points="309.731,156.748 309.328,157.151 310.083,157.837 	"/>
	<polygon fill="none" points="266.042,122.976 263.57,121.159 233.406,150.597 239.461,148.912 	"/>
	<polygon fill="none" points="270.373,126.159 267.9,124.342 244.019,147.645 250.084,145.957 	"/>
	<polygon fill="none" points="157.199,118.715 156.866,118.652 156.586,118.933 155.445,124.446 158.583,121.309 	"/>
	<path fill="none" d="M259.919,118.476c-0.214-0.157-0.398-0.351-0.546-0.572l-0.023-0.034l-26.879,26.228l-0.201,4.428
		l29.442-28.731L259.919,118.476z"/>
	<polygon fill="none" points="277.55,133.971 276.138,131.122 265.262,141.734 271.318,140.05 	"/>
	<polygon fill="none" points="210.321,137.313 218.392,129.24 215.941,127.317 206.234,137.028 	"/>
	<path fill="none" d="M245.091,98.971l-3.276-1.032l-9.373,9.146c-0.118,0.116-0.256,0.195-0.401,0.249l-5.585,9.821L245.091,98.971
		z"/>
	<polygon fill="none" points="255.074,111.454 253.366,108.893 232.89,128.871 234.689,131.344 	"/>
	<polygon fill="none" points="234.68,94.31 233.221,91.507 232.405,92.303 233.113,95.838 	"/>
	<polygon fill="none" points="252.082,106.966 250.373,104.402 229.737,124.542 231.536,127.013 	"/>
	<polygon fill="none" points="249.089,102.476 247.382,99.915 226.584,120.21 228.384,122.683 	"/>
	<polygon fill="none" points="274.703,129.342 272.231,127.525 254.643,144.688 260.702,143.003 	"/>
	<polygon fill="none" points="209.886,122.565 207.436,120.642 199.893,128.185 201.143,131.305 	"/>
	<polygon fill="none" points="226.898,135.917 224.449,133.995 220.427,138.018 224.513,138.303 	"/>
	<polygon fill="none" points="205.632,119.227 203.182,117.303 197.722,122.763 198.973,125.886 	"/>
	<path fill="none" d="M200.736,115.384l-3.016-0.211l-2.854,2.854l1.132,0.867c0.163,0.124,0.288,0.29,0.364,0.479l0.438,1.092
		l4.578-4.577L200.736,115.384z"/>
	<polygon fill="none" points="222.646,132.58 220.194,130.656 213.33,137.522 217.418,137.808 	"/>
	<path fill="#FFFFFF" d="M150.945,162.158h2.916c0.624,0,1.188-0.099,1.691-0.297c0.505-0.198,0.937-0.468,1.297-0.811
		c0.359-0.342,0.636-0.749,0.827-1.224c0.192-0.474,0.288-0.993,0.288-1.557c0-0.552-0.096-1.068-0.288-1.548
		c-0.191-0.48-0.468-0.892-0.827-1.233c-0.36-0.342-0.792-0.612-1.297-0.81c-0.504-0.198-1.067-0.298-1.691-0.298h-4.86v12.816
		h1.944V162.158z M150.945,156.128h2.808c0.685,0,1.233,0.187,1.647,0.559s0.621,0.899,0.621,1.584c0,0.684-0.207,1.209-0.621,1.575
		s-0.963,0.549-1.647,0.549h-2.808V156.128z"/>
	<path fill="#FFFFFF" d="M168.531,160.367c0.492-0.569,0.738-1.316,0.738-2.241c0-0.54-0.093-1.041-0.279-1.503
		c-0.186-0.462-0.453-0.857-0.801-1.188c-0.349-0.33-0.765-0.588-1.251-0.774c-0.486-0.186-1.035-0.279-1.647-0.279h-4.968v12.816
		h1.944v-5.4h2.43l2.7,5.4h2.268l-2.951-5.67C167.434,161.324,168.039,160.938,168.531,160.367z M162.268,160.16v-4.032h2.88
		c0.648,0,1.173,0.179,1.575,0.534c0.401,0.355,0.603,0.853,0.603,1.491s-0.201,1.133-0.603,1.482
		c-0.402,0.35-0.927,0.524-1.575,0.524H162.268z"/>
	<polygon fill="#FFFFFF" points="180.304,156.128 180.304,154.382 172.113,154.382 172.113,167.198 180.304,167.198 
		180.304,165.452 174.058,165.452 174.058,161.601 179.386,161.601 179.386,159.872 174.058,159.872 174.058,156.128 	"/>
	<polygon fill="#FFFFFF" points="194.271,167.198 194.271,154.382 192.327,154.382 188.655,162.356 184.911,154.382 
		182.967,154.382 182.967,167.198 184.911,167.198 184.911,158.63 187.935,164.876 189.375,164.876 192.327,158.63 192.327,167.198 
			"/>
	<rect x="197.601" y="154.382" fill="#FFFFFF" width="1.944" height="12.816"/>
	<path fill="#FFFFFF" d="M202.946,164.948c0.168,0.349,0.408,0.678,0.721,0.99c0.443,0.444,0.944,0.783,1.503,1.017
		c0.558,0.234,1.179,0.352,1.863,0.352c0.684,0,1.308-0.117,1.871-0.352c0.564-0.233,1.068-0.572,1.513-1.017
		c0.312-0.312,0.552-0.642,0.72-0.99c0.168-0.348,0.288-0.726,0.36-1.134c0.071-0.408,0.113-0.861,0.126-1.359
		c0.012-0.498,0.018-1.053,0.018-1.665c0-0.611-0.006-1.167-0.018-1.665c-0.013-0.498-0.055-0.95-0.126-1.358
		c-0.072-0.408-0.192-0.786-0.36-1.135c-0.168-0.348-0.408-0.678-0.72-0.989c-0.444-0.444-0.948-0.783-1.513-1.018
		c-0.563-0.233-1.188-0.351-1.871-0.351c-0.685,0-1.306,0.117-1.863,0.351c-0.559,0.234-1.06,0.573-1.503,1.018
		c-0.312,0.312-0.553,0.642-0.721,0.989c-0.168,0.349-0.291,0.727-0.368,1.135c-0.078,0.408-0.124,0.86-0.136,1.358
		s-0.018,1.054-0.018,1.665c0,0.612,0.006,1.167,0.018,1.665s0.058,0.951,0.136,1.359
		C202.655,164.223,202.778,164.601,202.946,164.948z M204.396,159.18c0.019-0.426,0.055-0.786,0.108-1.08s0.132-0.54,0.233-0.738
		c0.103-0.198,0.231-0.381,0.388-0.549c0.228-0.24,0.507-0.433,0.837-0.576c0.33-0.145,0.687-0.216,1.071-0.216
		c0.384,0,0.74,0.071,1.07,0.216c0.33,0.144,0.609,0.336,0.837,0.576c0.156,0.168,0.285,0.351,0.388,0.549
		c0.102,0.198,0.18,0.444,0.233,0.738c0.055,0.294,0.09,0.654,0.108,1.08c0.018,0.426,0.026,0.963,0.026,1.61
		c0,0.648-0.009,1.186-0.026,1.611c-0.019,0.426-0.054,0.786-0.108,1.08c-0.054,0.294-0.132,0.54-0.233,0.738
		c-0.103,0.197-0.231,0.381-0.388,0.549c-0.228,0.24-0.507,0.432-0.837,0.576c-0.33,0.144-0.687,0.216-1.07,0.216
		c-0.385,0-0.741-0.072-1.071-0.216c-0.33-0.145-0.609-0.336-0.837-0.576c-0.156-0.168-0.285-0.352-0.388-0.549
		c-0.102-0.198-0.18-0.444-0.233-0.738s-0.09-0.654-0.108-1.08c-0.018-0.426-0.026-0.963-0.026-1.611
		C204.369,160.143,204.378,159.605,204.396,159.18z"/>
	<path fill="#FFFFFF" d="M315.665,160.309l-7.414-22.986c-0.158-0.49-0.479-0.913-0.908-1.198l-14.155-9.388L271.8,102.889
		c-0.781-0.87-2.096-1.006-3.039-0.317l-9.503,6.949l-8.72-13.081c-0.288-0.433-0.715-0.753-1.211-0.909l-10.618-3.344
		l-8.541-16.405c-0.315-0.606-0.888-1.039-1.559-1.178c-0.673-0.141-1.367,0.031-1.897,0.463l-19.35,15.741
		c-0.197,0.16-0.366,0.353-0.5,0.568l-8.808,14.227c-2.294-11.776-12.703-20.593-24.998-20.593
		c-14.015,0-25.42,11.375-25.475,25.378l-3.016-7.821c-0.284-0.736-0.93-1.273-1.706-1.419c-0.778-0.146-1.572,0.123-2.104,0.706
		l-24.182,26.587c-0.009,0.01-0.014,0.021-0.022,0.03l-1.793-0.539l-16.995-14.623L85.661,98.475
		c-0.497-0.609-1.27-0.913-2.055-0.819c-0.78,0.101-1.453,0.596-1.78,1.312l-7.477,16.337l-23.479,22.74
		c-0.257,0.248-0.451,0.554-0.567,0.891l-7.381,21.328c-0.078,0.226-0.107,0.454-0.114,0.681c-0.047,0.183-0.08,0.371-0.08,0.568
		c0,1.258,1.02,2.277,2.277,2.277h94.991c1.258,0,2.277-1.02,2.277-2.277s-1.02-2.277-2.277-2.277H48.098l6.332-18.297
		l23.396-22.661c0.204-0.197,0.369-0.431,0.486-0.688l5.469-11.95l4.361,23.945c0.037,0.204,0.13,0.395,0.268,0.551l0.343,0.387
		c0.055,0.155,0.136,0.302,0.26,0.426c0.084,0.084,0.185,0.137,0.284,0.189l3.047,3.442c0.057,0.137,0.139,0.265,0.25,0.375
		c0.059,0.06,0.133,0.09,0.201,0.134l3.219,3.636c0.048,0.084,0.09,0.172,0.161,0.243c0.038,0.038,0.088,0.055,0.13,0.087
		l14.354,16.216c0.224,0.252,0.536,0.384,0.854,0.384c0.216,0,0.434-0.062,0.626-0.188l20.733-13.671l3.171,3.437
		c0.427,0.463,1.146,0.492,1.609,0.064c0.462-0.427,0.49-1.146,0.064-1.609l-3.827-4.147c-0.38-0.41-0.998-0.486-1.464-0.178
		l-2.017,1.33c-0.044-0.172-0.102-0.343-0.188-0.507l-4.327-8.194c-0.285-0.539-0.774-0.941-1.358-1.117l-3.152-0.948l20.262-22.276
		l2.932,7.604c0.284,0.736,0.93,1.273,1.706,1.419l8.131,1.523l-1.884,9.106c-0.051,0.245-0.019,0.5,0.09,0.726l6.471,13.411
		c0.087,0.181,0.221,0.335,0.387,0.447l4.741,3.213c0.188,0.128,0.411,0.196,0.639,0.196h0.001l19.574-0.018
		c0.459-0.001,0.872-0.276,1.05-0.699c0.01-0.023,0.011-0.05,0.019-0.074c0.007-0.007,0.016-0.012,0.022-0.019
		c0.87-0.908,0.84-2.35-0.067-3.22l-7.328-7.024l11.953-17.015l4.286,3.287l7.142,17.826c0.162,0.405,0.542,0.682,0.978,0.712
		l27.848,1.942l-0.52,11.418c-0.017,0.364,0.143,0.715,0.429,0.942c0.204,0.162,0.454,0.248,0.709,0.248
		c0.102,0,0.205-0.014,0.305-0.042l49.217-13.691l4.322,8.716c0.397,0.802,1.204,1.266,2.042,1.266c0.34,0,0.685-0.076,1.01-0.237
		c1.127-0.559,1.587-1.925,1.028-3.052l-9.47-19.097c-0.161-0.325-0.398-0.607-0.691-0.823l-15.774-11.595l-1.153-1.73l7.999-5.85
		l20.206,22.53c0.026,0.03,0.062,0.05,0.091,0.079l-2.536,9.526c-0.109,0.411,0.02,0.85,0.335,1.136l20.354,18.499h-89.727
		c-1.258,0-2.277,1.02-2.277,2.277s1.02,2.277,2.277,2.277h94.99c1.258,0,2.277-1.02,2.277-2.277c0-0.078-0.016-0.152-0.023-0.229
		C315.792,160.965,315.77,160.634,315.665,160.309z M105.701,146.231l11.551-11.547c0.317-0.317,0.397-0.771,0.264-1.169l4.057,1.22
		l-13.816,13.817L105.701,146.231z M115.768,132.99c-0.04,0.03-0.088,0.046-0.125,0.083l-11.453,11.45l-2.052-2.318l10.308-10.307
		c0.169,0.106,0.348,0.197,0.54,0.255L115.768,132.99z M98.572,138.178l9.765-9.765l2.352,2.023l-10.062,10.062L98.572,138.178z
		 M95.007,134.149l9.249-9.248l2.352,2.023l-9.547,9.546L95.007,134.149z M91.443,130.125l8.732-8.733l2.35,2.021l-9.03,9.029
		L91.443,130.125z M90.975,112.191l-3.117,3.118l-0.683-3.748c0.056-0.039,0.119-0.062,0.169-0.112l1.667-1.666L90.975,112.191z
		 M86.688,108.887l-0.457-2.511l1.334,1.634L86.688,108.887z M88.348,117.999c0.037-0.029,0.083-0.043,0.117-0.078l3.957-3.957
		l1.94,2.379c0.008,0.01,0.018,0.017,0.025,0.026l-5.36,5.36L88.348,117.999z M89.523,124.452l6.572-6.572l2.351,2.022l-8.249,8.25
		L89.523,124.452z M109.268,150.26l13.824-13.825l1.511,2.862L111.32,152.58L109.268,150.26z M118.725,148.394l6.99-6.99
		l0.479,0.906c0.159,0.302,0.38,0.547,0.635,0.741L118.725,148.394z M232.727,138.475l2.356-4.333l21.275-20.761l1.707,2.562
		l-25.443,24.826L232.727,138.475z M234.354,102.038l-0.708-3.537l2.457-2.398c0.109,0.056,0.22,0.107,0.338,0.145l2.909,0.916
		L234.354,102.038z M232.123,89.398l-0.25,0.244l-0.235-1.177L232.123,89.398z M233.221,91.507l1.459,2.803l-1.566,1.528
		l-0.708-3.535L233.221,91.507z M232.04,107.334c0.146-0.054,0.283-0.133,0.401-0.249l9.373-9.146l3.276,1.032l-18.636,18.185
		L232.04,107.334z M247.382,99.915l1.707,2.561l-20.705,20.207l-1.8-2.473L247.382,99.915z M250.373,104.402l1.709,2.563
		l-20.546,20.047l-1.799-2.471L250.373,104.402z M253.366,108.893l1.708,2.562l-20.385,19.89l-1.8-2.473L253.366,108.893z
		 M232.471,144.097l26.879-26.228l0.023,0.034c0.147,0.222,0.332,0.415,0.546,0.572l1.793,1.317l-29.442,28.731L232.471,144.097z
		 M263.57,121.159l2.472,1.816l-26.581,25.937l-6.055,1.685L263.57,121.159z M267.9,124.342l2.473,1.817l-20.289,19.798
		l-6.065,1.688L267.9,124.342z M272.231,127.525l2.472,1.816l-14.001,13.661l-6.06,1.686L272.231,127.525z M276.138,131.122
		l1.412,2.849l-6.231,6.079l-6.057,1.685L276.138,131.122z M201.503,108.686l9.03-14.587l16.886-13.736l0.446,0.857l4.271,21.339
		l-8.941,15.727c-0.222,0.389-0.194,0.871,0.068,1.232l9.835,13.508l-1.853,3.408l-29.378-23.057
		c-0.18-0.141-0.396-0.225-0.624-0.24l-6.497-0.454l5.903-3.192C200.999,109.301,201.293,109.023,201.503,108.686z M218.392,129.24
		l-8.07,8.073l-4.087-0.285l9.707-9.711L218.392,129.24z M220.194,130.656l2.451,1.924l-5.228,5.228l-4.088-0.285L220.194,130.656z
		 M224.449,133.995l2.449,1.922l-2.386,2.386l-4.086-0.285L224.449,133.995z M196.363,119.373c-0.076-0.189-0.201-0.355-0.364-0.479
		l-1.132-0.867l2.854-2.854l3.016,0.211l0.643,0.504l-4.578,4.577L196.363,119.373z M203.182,117.303l2.45,1.924l-6.659,6.659
		l-1.251-3.123L203.182,117.303z M207.436,120.642l2.45,1.924l-8.743,8.739l-1.25-3.12L207.436,120.642z M156.586,118.933l0.28-0.28
		l0.333,0.062l1.384,2.594l-3.138,3.138L156.586,118.933z M159.703,123.408l1.521,2.851l-4.673,4.674l-1.423-2.949L159.703,123.408z
		 M162.344,128.358l1.521,2.852l-4.844,4.844l-1.423-2.949L162.344,128.358z M179.351,141.721l1.336,1.28l-2.618,0.002
		L179.351,141.721z M174.847,143.006l-4.378,0.004l5.006-5.006l2.232,2.142L174.847,143.006z M160.069,138.225l5.041-5.042
		c0.407,0.352,0.921,0.568,1.476,0.568h2.332l-7.021,7.021l-0.889-0.603L160.069,138.225z M163.814,142.072l7.784-7.783l1.464,1.403
		c0.162,0.31,0.391,0.59,0.696,0.805c0.001,0.001,0.002,0.001,0.003,0.001l-6.515,6.515l-2.042,0.002L163.814,142.072z
		 M173.528,129.83c-0.425-0.406-0.989-0.634-1.576-0.634h-4l-7.25-13.59c-0.325-0.61-0.91-1.039-1.59-1.167l-6.785-1.271
		c-0.114-0.888-0.192-1.782-0.192-2.682c0-11.536,9.386-20.922,20.922-20.922c10.623,0,19.516,8.021,20.75,18.448l-4.079,2.206
		c-0.311,0.168-0.577,0.405-0.78,0.694l-14.146,20.138L173.528,129.83z M191.811,114.76l2.902,0.203l-1.667,1.666l-1.656-1.271
		L191.811,114.76z M202.064,133.604l9.626-9.623l2.446,1.92l-10.812,10.816c-0.004,0.003-0.005,0.008-0.008,0.011L202.064,133.604z
		 M230.184,138.698l-2.662-0.186l1.18-1.18l1.541,1.209L230.184,138.698z M275.878,138.781l2.734-2.668l0.831,1.676L275.878,138.781
		z M293.135,132.166l-1.708,1.708l0.643-2.414L293.135,132.166z M302.266,138.222l-6.554,6.555l-2.291-2.083l6.216-6.215
		L302.266,138.222z M304.178,139.528l1.066,3.307l-5.556,5.555l-2.29-2.082L304.178,139.528z M306.028,145.269l1.066,3.306
		l-3.43,3.431l-2.29-2.082L306.028,145.269z M307.88,151.007l1.066,3.308l-1.304,1.305l-2.291-2.083L307.88,151.007z
		 M309.731,156.748l0.352,1.089l-0.755-0.686L309.731,156.748z M290.259,138.261l4.812-4.811l2.631,1.744l-5.967,5.966l-1.81-1.645
		L290.259,138.261z"/>
	<path fill="#FFFFFF" d="M313.498,205.8h-94.99c-1.258,0-2.277,1.02-2.277,2.277s1.02,2.277,2.277,2.277h94.99
		c1.258,0,2.277-1.02,2.277-2.277S314.756,205.8,313.498,205.8z"/>
	<path fill="#FFFFFF" d="M139.997,205.8H45.006c-1.258,0-2.277,1.02-2.277,2.277s1.02,2.277,2.277,2.277h94.991
		c1.258,0,2.277-1.02,2.277-2.277S141.255,205.8,139.997,205.8z"/>
	<rect x="45.813" y="184.843" fill="#FFFFFF" width="9.84" height="4.62"/>
	<path fill="#FFFFFF" d="M74.403,188.383c1.18,0,2.225-0.195,3.135-0.585s1.675-0.904,2.295-1.545c0.62-0.64,1.085-1.37,1.396-2.19
		c0.31-0.819,0.465-1.669,0.465-2.55c0-0.88-0.155-1.729-0.465-2.55c-0.311-0.819-0.775-1.55-1.396-2.19
		c-0.62-0.64-1.385-1.154-2.295-1.545c-0.91-0.39-1.955-0.585-3.135-0.585h-8.46v21.36h5.25v-7.62H74.403z M71.193,179.353h2.97
		c0.72,0,1.28,0.221,1.68,0.66c0.4,0.44,0.601,0.94,0.601,1.5c0,0.561-0.2,1.061-0.601,1.5c-0.399,0.44-0.96,0.66-1.68,0.66h-2.97
		V179.353z"/>
	<polygon fill="#FFFFFF" points="99.272,179.323 99.272,174.643 84.753,174.643 84.753,196.003 99.272,196.003 99.272,191.323 
		90.003,191.323 90.003,187.573 97.923,187.573 97.923,182.893 90.003,182.893 90.003,179.323 	"/>
	<path fill="#FFFFFF" d="M117.648,185.083c0.329-0.46,0.595-0.99,0.795-1.59c0.199-0.601,0.3-1.26,0.3-1.98
		c0-0.88-0.155-1.729-0.465-2.55c-0.311-0.819-0.775-1.55-1.396-2.19c-0.62-0.64-1.385-1.154-2.295-1.545
		c-0.91-0.39-1.955-0.585-3.135-0.585h-8.46v21.36h5.25v-7.95h1.77l3.78,7.95h6.09l-4.62-8.91c0.42-0.22,0.84-0.495,1.261-0.825
		C116.943,185.938,117.318,185.543,117.648,185.083z M112.893,183.013c-0.399,0.44-0.96,0.66-1.68,0.66h-2.97v-4.32h2.97
		c0.72,0,1.28,0.221,1.68,0.66c0.4,0.44,0.601,0.94,0.601,1.5C113.493,182.073,113.293,182.573,112.893,183.013z"/>
	<rect x="122.553" y="174.643" fill="#FFFFFF" width="5.25" height="21.36"/>
	<polygon fill="#FFFFFF" points="130.862,179.323 136.112,179.323 136.112,196.003 141.362,196.003 141.362,179.323 
		146.612,179.323 146.612,174.643 130.862,174.643 	"/>
	<path fill="#FFFFFF" d="M164.417,180.733c-0.13-0.721-0.345-1.405-0.645-2.056c-0.301-0.649-0.73-1.255-1.29-1.814
		c-0.78-0.78-1.641-1.375-2.58-1.785c-0.94-0.41-2.07-0.615-3.391-0.615c-1.319,0-2.45,0.205-3.39,0.615
		c-0.94,0.41-1.8,1.005-2.58,1.785c-0.56,0.56-0.99,1.165-1.29,1.814c-0.3,0.65-0.515,1.335-0.645,2.056
		c-0.131,0.72-0.2,1.465-0.21,2.234c-0.011,0.771-0.016,1.556-0.016,2.355s0.005,1.585,0.016,2.354
		c0.01,0.771,0.079,1.516,0.21,2.235c0.13,0.72,0.345,1.405,0.645,2.055c0.3,0.65,0.73,1.256,1.29,1.815
		c0.78,0.779,1.64,1.375,2.58,1.785c0.939,0.41,2.07,0.614,3.39,0.614c1.32,0,2.45-0.204,3.391-0.614
		c0.939-0.41,1.8-1.006,2.58-1.785c0.56-0.56,0.989-1.165,1.29-1.815c0.3-0.649,0.515-1.335,0.645-2.055s0.2-1.465,0.21-2.235
		c0.01-0.77,0.016-1.555,0.016-2.354s-0.006-1.585-0.016-2.355C164.617,182.198,164.547,181.453,164.417,180.733z M159.332,187.693
		c-0.04,0.6-0.09,1.085-0.15,1.454c-0.06,0.371-0.14,0.656-0.239,0.855c-0.101,0.2-0.21,0.38-0.33,0.54
		c-0.2,0.26-0.48,0.485-0.84,0.675c-0.36,0.19-0.78,0.285-1.261,0.285c-0.479,0-0.899-0.095-1.26-0.285
		c-0.359-0.189-0.641-0.415-0.84-0.675c-0.12-0.16-0.23-0.34-0.33-0.54c-0.101-0.199-0.18-0.484-0.24-0.855
		c-0.06-0.369-0.109-0.854-0.149-1.454c-0.041-0.601-0.061-1.391-0.061-2.37c0-0.98,0.02-1.775,0.061-2.386
		c0.04-0.609,0.09-1.1,0.149-1.47c0.061-0.37,0.14-0.654,0.24-0.854c0.1-0.2,0.21-0.38,0.33-0.54c0.199-0.26,0.48-0.48,0.84-0.66
		c0.36-0.18,0.78-0.271,1.26-0.271c0.48,0,0.9,0.091,1.261,0.271c0.359,0.18,0.64,0.4,0.84,0.66c0.12,0.16,0.229,0.34,0.33,0.54
		c0.1,0.2,0.18,0.484,0.239,0.854c0.061,0.37,0.11,0.86,0.15,1.47c0.04,0.61,0.061,1.405,0.061,2.386
		C159.393,186.303,159.372,187.093,159.332,187.693z"/>
	<polygon fill="#FFFFFF" points="184.892,184.062 180.092,174.643 174.932,174.643 174.932,196.003 180.182,196.003 
		180.182,185.772 183.212,191.053 186.571,191.053 189.602,185.772 189.602,196.003 194.852,196.003 194.852,174.643 
		189.691,174.643 	"/>
	<path fill="#FFFFFF" d="M214.517,180.733c-0.13-0.721-0.345-1.405-0.645-2.056c-0.301-0.649-0.73-1.255-1.29-1.814
		c-0.78-0.78-1.641-1.375-2.58-1.785c-0.94-0.41-2.07-0.615-3.391-0.615c-1.319,0-2.45,0.205-3.39,0.615
		c-0.94,0.41-1.8,1.005-2.58,1.785c-0.56,0.56-0.99,1.165-1.29,1.814c-0.3,0.65-0.515,1.335-0.645,2.056
		c-0.131,0.72-0.2,1.465-0.21,2.234c-0.011,0.771-0.016,1.556-0.016,2.355s0.005,1.585,0.016,2.354
		c0.01,0.771,0.079,1.516,0.21,2.235c0.13,0.72,0.345,1.405,0.645,2.055c0.3,0.65,0.73,1.256,1.29,1.815
		c0.78,0.779,1.64,1.375,2.58,1.785c0.939,0.41,2.07,0.614,3.39,0.614c1.32,0,2.45-0.204,3.391-0.614
		c0.939-0.41,1.8-1.006,2.58-1.785c0.56-0.56,0.989-1.165,1.29-1.815c0.3-0.649,0.515-1.335,0.645-2.055s0.2-1.465,0.21-2.235
		c0.01-0.77,0.016-1.555,0.016-2.354s-0.006-1.585-0.016-2.355C214.717,182.198,214.646,181.453,214.517,180.733z M209.432,187.693
		c-0.04,0.6-0.09,1.085-0.15,1.454c-0.06,0.371-0.14,0.656-0.239,0.855c-0.101,0.2-0.21,0.38-0.33,0.54
		c-0.2,0.26-0.48,0.485-0.84,0.675c-0.36,0.19-0.78,0.285-1.261,0.285c-0.479,0-0.899-0.095-1.26-0.285
		c-0.359-0.189-0.641-0.415-0.84-0.675c-0.12-0.16-0.23-0.34-0.33-0.54c-0.101-0.199-0.18-0.484-0.24-0.855
		c-0.06-0.369-0.109-0.854-0.149-1.454c-0.041-0.601-0.061-1.391-0.061-2.37c0-0.98,0.02-1.775,0.061-2.386
		c0.04-0.609,0.09-1.1,0.149-1.47c0.061-0.37,0.14-0.654,0.24-0.854c0.1-0.2,0.21-0.38,0.33-0.54c0.199-0.26,0.48-0.48,0.84-0.66
		c0.36-0.18,0.78-0.271,1.26-0.271c0.48,0,0.9,0.091,1.261,0.271c0.359,0.18,0.64,0.4,0.84,0.66c0.12,0.16,0.229,0.34,0.33,0.54
		c0.1,0.2,0.18,0.484,0.239,0.854c0.061,0.37,0.11,0.86,0.15,1.47c0.04,0.61,0.061,1.405,0.061,2.386
		C209.492,186.303,209.472,187.093,209.432,187.693z"/>
	<path fill="#FFFFFF" d="M233.027,185.083c0.329-0.46,0.595-0.99,0.795-1.59c0.199-0.601,0.3-1.26,0.3-1.98
		c0-0.88-0.155-1.729-0.465-2.55c-0.311-0.819-0.775-1.55-1.396-2.19c-0.62-0.64-1.385-1.154-2.295-1.545
		c-0.91-0.39-1.955-0.585-3.135-0.585h-8.46v21.36h5.25v-7.95h1.77l3.78,7.95h6.09l-4.62-8.91c0.42-0.22,0.84-0.495,1.261-0.825
		C232.322,185.938,232.697,185.543,233.027,185.083z M228.271,183.013c-0.399,0.44-0.96,0.66-1.68,0.66h-2.97v-4.32h2.97
		c0.72,0,1.28,0.221,1.68,0.66c0.4,0.44,0.601,0.94,0.601,1.5C228.872,182.073,228.672,182.573,228.271,183.013z"/>
	<polygon fill="#FFFFFF" points="252.451,179.323 252.451,174.643 237.932,174.643 237.932,196.003 252.451,196.003 
		252.451,191.323 243.182,191.323 243.182,187.573 251.102,187.573 251.102,182.893 243.182,182.893 243.182,179.323 	"/>
	<polygon fill="#FFFFFF" points="268.261,196.003 272.851,196.003 272.851,174.643 267.601,174.643 267.601,185.383 
		260.761,174.643 256.171,174.643 256.171,196.003 261.421,196.003 261.421,185.263 	"/>
	<path fill="#FFFFFF" d="M277.351,191.968c0.3,0.65,0.73,1.256,1.29,1.815c0.78,0.779,1.64,1.375,2.58,1.785
		c0.939,0.41,2.07,0.614,3.39,0.614c1.32,0,2.45-0.204,3.391-0.614c0.939-0.41,1.8-1.006,2.58-1.785
		c0.56-0.56,0.989-1.165,1.29-1.815c0.3-0.649,0.515-1.335,0.645-2.055s0.2-1.465,0.21-2.235c0.01-0.77,0.016-1.555,0.016-2.354
		s-0.006-1.585-0.016-2.355c-0.01-0.77-0.08-1.515-0.21-2.234c-0.13-0.721-0.345-1.405-0.645-2.056
		c-0.301-0.649-0.73-1.255-1.29-1.814c-0.78-0.78-1.641-1.375-2.58-1.785c-0.94-0.41-2.07-0.615-3.391-0.615
		c-1.319,0-2.45,0.205-3.39,0.615c-0.94,0.41-1.8,1.005-2.58,1.785c-0.56,0.56-0.99,1.165-1.29,1.814
		c-0.3,0.65-0.515,1.335-0.645,2.056c-0.131,0.72-0.2,1.465-0.21,2.234c-0.011,0.771-0.016,1.556-0.016,2.355
		s0.005,1.585,0.016,2.354c0.01,0.771,0.079,1.516,0.21,2.235C276.836,190.633,277.051,191.318,277.351,191.968z M281.791,182.938
		c0.04-0.609,0.09-1.1,0.149-1.47c0.061-0.37,0.14-0.654,0.24-0.854c0.1-0.2,0.21-0.38,0.33-0.54c0.199-0.26,0.48-0.48,0.84-0.66
		c0.36-0.18,0.78-0.271,1.26-0.271c0.48,0,0.9,0.091,1.261,0.271c0.359,0.18,0.64,0.4,0.84,0.66c0.12,0.16,0.229,0.34,0.33,0.54
		c0.1,0.2,0.18,0.484,0.239,0.854c0.061,0.37,0.11,0.86,0.15,1.47c0.04,0.61,0.061,1.405,0.061,2.386c0,0.979-0.021,1.77-0.061,2.37
		c-0.04,0.6-0.09,1.085-0.15,1.454c-0.06,0.371-0.14,0.656-0.239,0.855c-0.101,0.2-0.21,0.38-0.33,0.54
		c-0.2,0.26-0.48,0.485-0.84,0.675c-0.36,0.19-0.78,0.285-1.261,0.285c-0.479,0-0.899-0.095-1.26-0.285
		c-0.359-0.189-0.641-0.415-0.84-0.675c-0.12-0.16-0.23-0.34-0.33-0.54c-0.101-0.199-0.18-0.484-0.24-0.855
		c-0.06-0.369-0.109-0.854-0.149-1.454c-0.041-0.601-0.061-1.391-0.061-2.37C281.73,184.343,281.75,183.548,281.791,182.938z"/>
	<rect x="302.34" y="184.843" fill="#FFFFFF" width="9.84" height="4.62"/>
	<path fill="#FFFFFF" d="M38.921,102.483v-7.851c-4.881,2.229-9.616,4.587-14.202,7.065L38.921,102.483z"/>
	<path fill="#FFFFFF" d="M16.768,105.066c-0.016-0.009-0.033-0.011-0.048-0.02c-0.024-0.014-0.042-0.035-0.065-0.05
		c-0.102-0.064-0.195-0.137-0.283-0.218c-0.033-0.03-0.067-0.058-0.098-0.09c-0.106-0.111-0.201-0.231-0.279-0.364
		c-0.012-0.02-0.019-0.041-0.029-0.061c-0.063-0.118-0.114-0.242-0.154-0.372c-0.014-0.045-0.023-0.09-0.034-0.136
		c-0.026-0.114-0.041-0.231-0.046-0.352c-0.002-0.031-0.013-0.061-0.013-0.092V46.486C10.285,48.791,5.03,51.233,0,53.823
		l11.634,32.099c0.152,0.418,0.16,0.875,0.022,1.299L1.009,120.065c9.385-5.164,19.504-9.847,30.2-14.002l-13.602-0.753
		C17.302,105.294,17.02,105.203,16.768,105.066z"/>
	<path fill="#FFFFFF" d="M319.799,94.722v7.761l14.017-0.782C329.287,99.255,324.613,96.926,319.799,94.722z"/>
	<path fill="#FFFFFF" d="M347.086,85.922l11.635-32.099c-5.09-2.619-10.408-5.089-15.91-7.418v56.908c0,0.031-0.011,0.06-0.012,0.09
		c-0.006,0.122-0.021,0.239-0.047,0.354c-0.011,0.046-0.021,0.09-0.034,0.134c-0.04,0.131-0.091,0.257-0.155,0.375
		c-0.011,0.019-0.017,0.039-0.027,0.058c-0.078,0.133-0.174,0.254-0.28,0.365c-0.03,0.032-0.064,0.06-0.097,0.09
		c-0.088,0.081-0.183,0.153-0.284,0.218c-0.023,0.015-0.041,0.036-0.065,0.05c-0.016,0.009-0.032,0.011-0.047,0.02
		c-0.252,0.137-0.534,0.228-0.84,0.244l-13.421,0.749c10.699,4.157,20.822,8.84,30.211,14.006l-10.648-32.845
		C346.926,86.797,346.934,86.34,347.086,85.922z"/>
	<path fill="#FFFFFF" d="M160.076,16.02v-0.49h-0.001l-0.063,0.492c-0.573,0.022-1.065,0.357-1.503,1.022
		c-0.472,0.716-0.711,1.601-0.711,2.629v25.736c0,1.007,0.237,1.863,0.705,2.545c0.413,0.602,0.874,0.895,1.407,0.895
		c0.643-0.025,1.134-0.362,1.561-1.032c0.463-0.725,0.697-1.607,0.697-2.621V19.459c0-1.025-0.231-1.887-0.689-2.56
		C161.076,16.308,160.617,16.02,160.076,16.02z"/>
	<path fill="#FFFFFF" d="M234.919,48.248c0.203-0.775,0.306-1.699,0.306-2.751c0-2.536-0.317-4.435-0.943-5.642
		c-0.515-1.027-1.241-1.583-2.224-1.704l-1.387-0.17v13.018l1.508,0.185c0.1,0.013,0.177,0.026,0.291,0.018
		C232.895,51.201,234.171,51.192,234.919,48.248z"/>
	<path fill="#FFFFFF" d="M123.961,19.714c-0.104,0-0.211,0.007-0.323,0.021l-2.363,0.299v14.022l2.238-0.283
		c0.586-0.074,1.081-0.465,1.515-1.195c0.463-0.782,0.697-1.696,0.697-2.717v-6.857C125.725,19.714,124.397,19.714,123.961,19.714z"
		/>
	<path fill="#FFFFFF" d="M50.812,36.969c-0.136,0-0.287,0.032-0.449,0.096c-0.566,0.225-1.074,0.773-1.507,1.632
		c-0.454,0.901-0.685,1.89-0.685,2.938v25.736c0,0.991,0.21,1.748,0.624,2.249c0.24,0.291,0.49,0.433,0.766,0.433
		c0.132,0,0.278-0.031,0.435-0.093c0.575-0.227,1.081-0.778,1.503-1.64c0.446-0.907,0.672-1.891,0.672-2.924V39.66
		c0-1.009-0.205-1.773-0.61-2.271C51.253,37.012,50.986,36.969,50.812,36.969z"/>
	<polygon fill="#FFFFFF" points="308.796,46.871 307.729,58.688 309.863,59.539 	"/>
	<path fill="#FFFFFF" d="M338.811,99.87V32.952C297.082,11.39,241.985,0,179.36,0C116.64,0,61.475,11.424,19.718,33.05v66.82
		c42.808-23.988,99.294-37.166,159.547-37.166S296.004,75.882,338.811,99.87z M319.445,34.219l5.196,2.596v39.987l7.25,3.622v8.156
		l-12.446-6.218V34.219z M312.308,31.202l0.03,0.303l4.913,49.772l-5.611-2.241l-1.029-11.213l-3.648-1.456L305.9,76.746l-5.5-2.196
		l5.009-46.102L312.308,31.202z M287.328,22.239l14.896,4.933v8.144l-4.713-1.561V73.69l-5.454-1.807V31.949l-4.729-1.566V22.239z
		 M268.382,17.267l6.039,1.559l5.079,27.982V20.135l5.543,1.431v48.058l-5.796-1.495l-5.322-27.008v25.635l-5.543-1.43V17.267z
		 M252.462,14.099l14.101,2.809v8.109l-8.5-1.693v11.871l6.208,1.236v8.109l-6.208-1.236v11.846l8.5,1.692v8.109l-14.101-2.809
		V14.099z M244.012,12.773l5.632,0.906v48.037l-5.632-0.906V12.773z M224.658,10.248l7.521,0.924
		c1.955,0.239,3.734,1.246,5.291,2.991c1.318,1.471,2.27,3.613,2.826,6.368c0.299,1.469,0.45,3.203,0.45,5.154
		c0,3.224-0.578,5.795-1.717,7.641c-0.359,0.569-0.769,1.039-1.221,1.404c0.873,0.817,1.632,2.046,2.26,3.663
		c0.498,1.296,0.867,2.941,1.098,4.894c0.115,1.013,0.173,2.14,0.173,3.354c0,3.019-0.381,5.581-1.132,7.617
		c-0.605,1.625-1.478,2.906-2.593,3.81c-1.118,0.9-2.256,1.356-3.383,1.356c-0.172,0-0.344-0.01-0.515-0.031l-9.059-1.112V10.248z
		 M199.129,8.383l7.65,0.516l3.908,30.508l3.756-29.991l7.389,0.497V57.94l-5.681-0.383V34.813l-3.114,22.534l-4.622-0.312
		l-3.605-23.648v23.405l-5.681-0.382V8.383z M40.759,50.449l-5.36,2.646v-6.297c0-1.008-0.2-1.757-0.594-2.228
		c-0.268-0.318-0.488-0.355-0.632-0.355s-0.307,0.045-0.486,0.133c-0.554,0.273-1.047,0.878-1.464,1.796
		c-0.438,0.962-0.659,1.984-0.659,3.04v25.808c0,1.008,0.197,1.754,0.587,2.219c0.264,0.314,0.48,0.351,0.62,0.351
		s0.3-0.044,0.474-0.13c0.565-0.278,1.066-0.883,1.489-1.797c0.441-0.954,0.665-1.973,0.665-3.028v-6.782l5.36-2.646v7.354
		c0,3.188-0.675,6.259-2.004,9.13c-1.349,2.911-3.008,4.868-4.93,5.817c-0.758,0.374-1.49,0.563-2.179,0.563
		c-1.184,0-2.245-0.55-3.153-1.633c-1.367-1.629-2.061-4.086-2.061-7.303V51.351c0-3.168,0.675-6.239,2.005-9.129
		c1.35-2.93,3.013-4.898,4.945-5.851c2.062-1.017,3.896-0.634,5.326,1.101c1.36,1.647,2.05,4.104,2.05,7.304V50.449z M57.725,63.646
		c0,3.192-0.701,6.222-2.083,9.005c-1.404,2.827-3.143,4.667-5.168,5.466c-0.652,0.258-1.288,0.389-1.889,0.389
		c-1.349,0-2.548-0.645-3.564-1.914c-1.404-1.754-2.116-4.272-2.116-7.485V43.453c0-3.191,0.7-6.221,2.082-9.005
		c1.405-2.827,3.128-4.66,5.12-5.447c2.124-0.839,4.002-0.32,5.483,1.511c1.417,1.751,2.135,4.268,2.135,7.481V63.646z
		 M76.723,68.646l-5.673,1.757l-5.295-24.214v25.854l-5.482,1.699V25.67l5.918-1.833l5.05,25.322V22.273l5.482-1.699V68.646z
		 M94.836,33.25l-5.73,1.365v-6.124c0-1.018-0.226-1.83-0.67-2.414c-0.393-0.518-0.822-0.699-1.353-0.57
		c-0.573,0.137-1.085,0.605-1.521,1.394c-0.465,0.841-0.701,1.796-0.701,2.841v25.807c0,1.018,0.223,1.826,0.661,2.403
		c0.39,0.511,0.805,0.684,1.328,0.562c0.586-0.14,1.106-0.606,1.548-1.389c0.469-0.833,0.707-1.784,0.707-2.827v-6.865l5.73-1.365
		v7.182c0,3.2-0.736,6.129-2.189,8.705c-1.48,2.626-3.302,4.213-5.414,4.716c-0.451,0.107-0.896,0.162-1.322,0.162
		c-1.657,0-3.111-0.808-4.32-2.398c-1.466-1.929-2.21-4.532-2.21-7.74V30.938c0-3.184,0.736-6.112,2.188-8.704
		c1.48-2.644,3.309-4.241,5.432-4.747c2.209-0.522,4.12,0.246,5.637,2.267c1.459,1.947,2.199,4.552,2.199,7.74V33.25z
		 M112.85,49.971c0,3.222-0.747,6.109-2.22,8.583c-1.505,2.525-3.365,4.003-5.529,4.393c-0.352,0.063-0.699,0.095-1.035,0.095
		c-1.782,0-3.336-0.883-4.619-2.623c-1.475-1.997-2.223-4.627-2.223-7.816V15.729l5.518-0.993v36.976
		c0,1.002,0.229,1.817,0.681,2.421c0.407,0.547,0.862,0.757,1.383,0.657c0.593-0.106,1.093-0.525,1.529-1.28
		c0.462-0.801,0.696-1.727,0.696-2.749V13.965l5.819-1.047V49.971z M126.289,59.181l-2.835-17.379l-2.18,0.275v17.737l-5.654,0.716
		V12.497l7.766-0.982c2.796-0.352,4.888,0.592,6.196,2.793c1.113,1.841,1.679,4.53,1.679,7.993v6.832
		c0,3.346-0.827,6.323-2.458,8.854l3.504,20.433L126.289,59.181z M148.02,53.591c-0.799,1.73-1.952,3.016-3.426,3.813
		c-0.799,0.452-1.743,0.727-2.799,0.813c-0.209,0.018-0.413,0.026-0.614,0.026c-1.718,0-3.181-0.629-4.349-1.869
		c-1.045-1.104-1.884-2.651-2.493-4.6c-0.6-1.917-0.95-4.185-1.043-6.738l-0.016-0.43l5.41-1.011l0.042,0.557
		c0.196,2.616,0.655,4.492,1.364,5.574c0.453,0.719,0.903,1.019,1.428,0.937c0.834-0.11,1.524-0.838,2.061-2.163
		c0.293-0.705,0.44-1.703,0.44-2.972c0-1.87-0.563-3.7-1.674-5.438c-0.909-1.218-2.298-3.09-4.146-5.585
		c-1.575-2.171-2.701-4.178-3.35-5.968c-0.709-2.021-1.067-4.268-1.067-6.685c0-4.377,0.992-7.831,2.95-10.267
		c1.255-1.525,2.835-2.374,4.701-2.527c1.812-0.153,3.366,0.349,4.654,1.47c0.978,0.854,1.774,2.097,2.368,3.694
		c0.581,1.565,0.94,3.411,1.067,5.485l0.023,0.374l-5.468,1.957l-0.043-0.662c-0.119-1.826-0.462-3.231-1.02-4.175
		c-0.339-0.595-0.778-0.833-1.383-0.79c-0.646,0.054-1.146,0.566-1.528,1.568c-0.339,0.896-0.512,2.014-0.512,3.321
		c0,2.05,0.596,4.128,1.771,6.175c0.448,0.774,1.128,1.698,2.021,2.744c1.111,1.313,1.829,2.214,2.193,2.754
		c1.159,1.679,2.076,3.384,2.723,5.063c0.297,0.772,0.543,1.516,0.729,2.207c0.451,1.664,0.691,3.204,0.715,4.577
		C149.787,48.167,149.204,51.116,148.02,53.591z M168.061,45.049c0,3.212-0.762,6.018-2.263,8.338
		c-1.541,2.384-3.448,3.637-5.668,3.726l-0.243,0.005c-2.129,0-3.956-1.117-5.433-3.318c-1.488-2.216-2.242-4.961-2.242-8.159
		V19.987c0-3.211,0.762-6.017,2.263-8.337c1.541-2.384,3.431-3.637,5.616-3.724l0.247-0.005c2.137,0,3.975,1.115,5.463,3.314
		c1.499,2.217,2.26,4.962,2.26,8.16V45.049z M183.899,8.127l7.359,0.127l0.049,0.438l5.266,47.679l-5.925-0.102l-1.108-10.821
		l-3.995-0.068l-1.143,10.782l-5.887-0.102L183.899,8.127z"/>
	<polygon fill="#FFFFFF" points="187.552,24.816 186.36,37.483 188.743,37.523 	"/>
	<path fill="#FFFFFF" d="M232.448,30.396c0.001,0,0.002,0,0.002,0c0.374,0,1.5-0.005,2.095-2.502
		c0.17-0.744,0.257-1.692,0.257-2.815c0-1.861-0.291-3.308-0.864-4.299c-0.497-0.862-1.112-1.328-1.881-1.423l-1.386-0.17v11.007
		l1.508,0.186C232.271,30.39,232.361,30.396,232.448,30.396z"/>
</g>
</svg>
